<svg width="current" height="current" viewBox="0 0 20 21" fill="none" xmlns="http://www.w3.org/2000/svg">
<path fill-rule="evenodd" clip-rule="evenodd" d="M10 0.529297C4.61522 0.529297 0.25 4.89452 0.25 10.2793C0.25 15.6641 4.61522 20.0293 10 20.0293C15.3848 20.0293 19.75 15.6641 19.75 10.2793C19.75 4.89452 15.3848 0.529297 10 0.529297ZM5.25 10.2793C5.25 9.86508 5.58579 9.5293 6 9.5293L12.1893 9.5293L10.4697 7.80963C10.1768 7.51673 10.1768 7.04186 10.4697 6.74897C10.7626 6.45607 11.2374 6.45607 11.5303 6.74897L14.3889 9.60755C14.4143 9.63291 14.4379 9.65934 14.4598 9.68671C14.6364 9.82393 14.75 10.0383 14.75 10.2793C14.75 10.5202 14.6364 10.7347 14.4598 10.8719C14.4379 10.8992 14.4143 10.9257 14.3889 10.951L11.5303 13.8096C11.2374 14.1025 10.7626 14.1025 10.4697 13.8096C10.1768 13.5167 10.1768 13.0419 10.4697 12.749L12.1893 11.0293L6 11.0293C5.58579 11.0293 5.25 10.6935 5.25 10.2793Z" fill="#3678D8"/>
</svg>
