<svg width="current" height="current" viewBox="0 0 26 27" fill="none" xmlns="http://www.w3.org/2000/svg">
<path fill-rule="evenodd" clip-rule="evenodd" d="M3.66667 0.320312C1.64162 0.320312 0 1.96194 0 3.98698V22.6536C0 24.6787 1.64162 26.3203 3.66667 26.3203H22.3333C24.3584 26.3203 26 24.6787 26 22.6536V3.98698C26 1.96194 24.3584 0.320312 22.3333 0.320312H3.66667ZM5.33333 13.3203C5.33333 12.768 5.78105 12.3203 6.33333 12.3203H12V6.65364C12 6.10136 12.4477 5.65364 13 5.65364C13.5523 5.65364 14 6.10136 14 6.65364V12.3203H19.6667C20.219 12.3203 20.6667 12.768 20.6667 13.3203C20.6667 13.8726 20.219 14.3203 19.6667 14.3203H14V19.987C14 20.5393 13.5523 20.987 13 20.987C12.4477 20.987 12 20.5393 12 19.987V14.3203H6.33333C5.78105 14.3203 5.33333 13.8726 5.33333 13.3203Z" fill="#3678D8"/>
</svg>
