<svg width="20" height="20" viewBox="0 0 20 20" fill="none" xmlns="http://www.w3.org/2000/svg">
<path d="M4.75879 3.45293V1M14.7627 3.45293V1M18.5216 6.00476H1.02832M4.50781 9.25085H6.00781M9.00977 9.25085H10.5098M13.5117 9.25085H15.0117M9.00977 12.7524H10.5098M4.50781 12.7524H6.00781M13.5117 12.7524H15.0117M9.00977 16.2539H10.5098M4.50781 16.2539H6.00781M13.5117 16.2539H15.0117M2.5 19.5H17.0213C17.8497 19.5 18.5213 18.8284 18.5213 18V3.96753C18.5213 3.1391 17.8497 2.46753 17.0213 2.46753H2.5C1.67157 2.46753 1 3.1391 1 3.96753V18C1 18.8284 1.67157 19.5 2.5 19.5Z" stroke="#323232" stroke-linecap="round" stroke-linejoin="round"/>
</svg>
