<svg width="49" height="44" viewBox="0 0 49 44" fill="none" xmlns="http://www.w3.org/2000/svg">
<path d="M2 32.5078L17.0578 18.3911C18.0625 17.4493 19.6396 17.4972 20.5852 18.4984L42.7811 42M31.9999 29.8135L39.2459 23.7743C40.2392 22.9464 41.7 23.0126 42.6143 23.9271L46.9999 28.3132M46.9999 36.9999V6.99999C46.9999 4.23857 44.7613 2 41.9999 2L6.99998 2C4.23857 2 2 4.23857 2 6.99998L2 36.9999C2 39.7613 4.23857 41.9999 6.99998 41.9999H41.9999C44.7613 41.9999 46.9999 39.7613 46.9999 36.9999ZM36.9999 13.5625C36.9999 15.6335 35.321 17.3125 33.2499 17.3125C31.1788 17.3125 29.4999 15.6335 29.4999 13.5625C29.4999 11.4914 31.1788 9.81248 33.2499 9.81248C35.321 9.81248 36.9999 11.4914 36.9999 13.5625Z" stroke="#CCCCCC" stroke-width="3.74999" stroke-linecap="round"/>
</svg>
