<svg width="5" height="19" viewBox="0 0 5 19" fill="none" xmlns="http://www.w3.org/2000/svg">
<path d="M2.12532 4.25064C0.951538 4.25064 -5.13076e-08 3.2991 0 2.12532C5.13076e-08 0.951538 0.951538 -5.13076e-08 2.12532 0C3.2991 5.13076e-08 4.25064 0.951538 4.25064 2.12532C4.25064 3.2991 3.2991 4.25064 2.12532 4.25064Z" fill="#474747"/>
<path d="M2.12532 11.4992C0.952301 11.4992 0.00138055 10.5483 0.0013806 9.37531C0.00138065 8.20229 0.952301 7.25137 2.12532 7.25137C3.29834 7.25137 4.24926 8.20229 4.24926 9.37531C4.24926 10.5483 3.29834 11.4992 2.12532 11.4992Z" fill="#474747"/>
<path d="M2.12531 18.7487C0.952575 18.7487 0.00188378 17.798 0.00188383 16.6253C0.00188388 15.4526 0.952575 14.5019 2.12531 14.5019C3.29805 14.5019 4.24874 15.4526 4.24874 16.6253C4.24874 17.798 3.29805 18.7487 2.12531 18.7487Z" fill="#474747"/>
</svg>
